<mxfile host="Electron" agent="Mozilla/5.0 (Windows NT 10.0; Win64; x64) AppleWebKit/537.36 (KHTML, like Gecko) draw.io/25.0.2 Chrome/128.0.6613.186 Electron/32.2.5 Safari/537.36" version="25.0.2">
  <diagram id="WI9T0HZ2pTsCkuznbFz-" name="Page-1">
    <mxGraphModel dx="1195" dy="697" grid="1" gridSize="10" guides="1" tooltips="1" connect="1" arrows="1" fold="1" page="1" pageScale="1" pageWidth="1169" pageHeight="827" math="0" shadow="0">
      <root>
        <mxCell id="0" />
        <mxCell id="1" parent="0" />
        <mxCell id="SgOE8uOP5WZQZZ8q2lda-2" value="" style="rounded=0;textShadow=0;whiteSpace=wrap;html=1;fillColor=#f5f5f5;strokeColor=#666666;strokeWidth=1;dashed=1;glass=0;shadow=0;sketch=1;curveFitting=1;jiggle=2;fontColor=#333333;" parent="1" vertex="1">
          <mxGeometry x="690" y="192.5" width="350" height="260" as="geometry" />
        </mxCell>
        <mxCell id="SgOE8uOP5WZQZZ8q2lda-3" value="Frontend" style="rounded=1;whiteSpace=wrap;html=1;fillColor=#dae8fc;strokeColor=#6c8ebf;" parent="1" vertex="1">
          <mxGeometry x="860" y="230" width="120" height="60" as="geometry" />
        </mxCell>
        <mxCell id="SgOE8uOP5WZQZZ8q2lda-4" value="Backend" style="rounded=1;whiteSpace=wrap;html=1;fillColor=#dae8fc;strokeColor=#6c8ebf;" parent="1" vertex="1">
          <mxGeometry x="860" y="354" width="120" height="60" as="geometry" />
        </mxCell>
        <mxCell id="SgOE8uOP5WZQZZ8q2lda-5" value="" style="image;aspect=fixed;html=1;points=[];align=center;fontSize=12;image=img/lib/azure2/app_services/App_Services.svg;" parent="1" vertex="1">
          <mxGeometry x="950" y="220" width="48" height="48" as="geometry" />
        </mxCell>
        <mxCell id="SgOE8uOP5WZQZZ8q2lda-6" value="" style="image;aspect=fixed;html=1;points=[];align=center;fontSize=12;image=img/lib/azure2/app_services/App_Services.svg;" parent="1" vertex="1">
          <mxGeometry x="950" y="331" width="48" height="48" as="geometry" />
        </mxCell>
        <mxCell id="SgOE8uOP5WZQZZ8q2lda-7" value="Proxy" style="fontColor=#0066CC;verticalAlign=top;verticalLabelPosition=bottom;labelPosition=center;align=center;html=1;outlineConnect=0;fillColor=#CCCCCC;strokeColor=#6881B3;gradientColor=none;gradientDirection=north;strokeWidth=2;shape=mxgraph.networks.proxy_server;" parent="1" vertex="1">
          <mxGeometry x="730" y="300" width="45" height="45" as="geometry" />
        </mxCell>
        <mxCell id="SgOE8uOP5WZQZZ8q2lda-8" value="User" style="sketch=0;outlineConnect=0;fontColor=#232F3E;gradientColor=none;strokeColor=#232F3E;fillColor=#ffffff;dashed=0;verticalLabelPosition=bottom;verticalAlign=top;align=center;html=1;fontSize=12;fontStyle=0;aspect=fixed;shape=mxgraph.aws4.resourceIcon;resIcon=mxgraph.aws4.user;" parent="1" vertex="1">
          <mxGeometry x="480" y="294" width="60" height="60" as="geometry" />
        </mxCell>
        <mxCell id="SgOE8uOP5WZQZZ8q2lda-9" value="" style="image;aspect=fixed;perimeter=ellipsePerimeter;html=1;align=center;shadow=0;dashed=0;spacingTop=3;image=img/lib/active_directory/internet_globe.svg;" parent="1" vertex="1">
          <mxGeometry x="585" y="297.5" width="50" height="50" as="geometry" />
        </mxCell>
        <mxCell id="SgOE8uOP5WZQZZ8q2lda-10" value="&lt;b style=&quot;background-color: rgb(255, 242, 204);&quot;&gt;3000:3000&lt;/b&gt;" style="text;html=1;align=center;verticalAlign=middle;whiteSpace=wrap;rounded=0;" parent="1" vertex="1">
          <mxGeometry x="830" y="384" width="60" height="30" as="geometry" />
        </mxCell>
        <mxCell id="SgOE8uOP5WZQZZ8q2lda-11" value="&lt;b style=&quot;background-color: rgb(255, 242, 204);&quot;&gt;80:80&lt;/b&gt;" style="text;html=1;align=center;verticalAlign=middle;whiteSpace=wrap;rounded=0;" parent="1" vertex="1">
          <mxGeometry x="830" y="260" width="60" height="30" as="geometry" />
        </mxCell>
        <mxCell id="SgOE8uOP5WZQZZ8q2lda-14" value="" style="endArrow=none;html=1;rounded=0;shape=link;" parent="1" source="SgOE8uOP5WZQZZ8q2lda-4" target="SgOE8uOP5WZQZZ8q2lda-7" edge="1">
          <mxGeometry width="50" height="50" relative="1" as="geometry">
            <mxPoint x="590" y="460" as="sourcePoint" />
            <mxPoint x="640" y="410" as="targetPoint" />
          </mxGeometry>
        </mxCell>
        <mxCell id="SgOE8uOP5WZQZZ8q2lda-19" value="&lt;b&gt;&lt;font style=&quot;font-size: 14px;&quot;&gt;/api&lt;/font&gt;&lt;/b&gt;" style="edgeLabel;html=1;align=center;verticalAlign=middle;resizable=0;points=[];labelBackgroundColor=#E6E6E6;" parent="SgOE8uOP5WZQZZ8q2lda-14" vertex="1" connectable="0">
          <mxGeometry x="0.2357" y="1" relative="1" as="geometry">
            <mxPoint as="offset" />
          </mxGeometry>
        </mxCell>
        <mxCell id="SgOE8uOP5WZQZZ8q2lda-15" value="" style="endArrow=none;html=1;rounded=0;shape=link;" parent="1" source="SgOE8uOP5WZQZZ8q2lda-7" target="SgOE8uOP5WZQZZ8q2lda-3" edge="1">
          <mxGeometry width="50" height="50" relative="1" as="geometry">
            <mxPoint x="600" y="150" as="sourcePoint" />
            <mxPoint x="650" y="100" as="targetPoint" />
          </mxGeometry>
        </mxCell>
        <mxCell id="SgOE8uOP5WZQZZ8q2lda-18" value="/" style="edgeLabel;html=1;align=center;verticalAlign=middle;resizable=0;points=[];fontSize=14;fontStyle=1;labelBackgroundColor=#c1bebe;" parent="SgOE8uOP5WZQZZ8q2lda-15" vertex="1" connectable="0">
          <mxGeometry x="-0.1761" relative="1" as="geometry">
            <mxPoint as="offset" />
          </mxGeometry>
        </mxCell>
        <mxCell id="SgOE8uOP5WZQZZ8q2lda-16" value="" style="endArrow=none;html=1;rounded=0;shape=link;exitX=1;exitY=0.5;exitDx=0;exitDy=0;" parent="1" source="SgOE8uOP5WZQZZ8q2lda-9" target="SgOE8uOP5WZQZZ8q2lda-7" edge="1">
          <mxGeometry width="50" height="50" relative="1" as="geometry">
            <mxPoint x="785" y="324" as="sourcePoint" />
            <mxPoint x="870" y="292" as="targetPoint" />
          </mxGeometry>
        </mxCell>
        <mxCell id="SgOE8uOP5WZQZZ8q2lda-17" value="" style="endArrow=none;html=1;rounded=0;shape=link;" parent="1" source="SgOE8uOP5WZQZZ8q2lda-8" target="SgOE8uOP5WZQZZ8q2lda-9" edge="1">
          <mxGeometry width="50" height="50" relative="1" as="geometry">
            <mxPoint x="490" y="331" as="sourcePoint" />
            <mxPoint x="585" y="331" as="targetPoint" />
          </mxGeometry>
        </mxCell>
        <mxCell id="SgOE8uOP5WZQZZ8q2lda-23" value="" style="image;aspect=fixed;html=1;points=[];align=center;fontSize=12;image=img/lib/azure2/networking/Virtual_Networks.svg;rounded=0;strokeColor=default;verticalAlign=middle;fontFamily=Helvetica;fontColor=default;fillColor=none;" parent="1" vertex="1">
          <mxGeometry x="700" y="200" width="50.25" height="30" as="geometry" />
        </mxCell>
        <mxCell id="Z3trW8ssx32PnEz77pNF-1" value="" style="rounded=0;whiteSpace=wrap;html=1;dashed=1;dashPattern=8 8;shadow=0;fillColor=none;" vertex="1" parent="1">
          <mxGeometry x="160" y="490" width="520" height="337" as="geometry" />
        </mxCell>
        <mxCell id="Z3trW8ssx32PnEz77pNF-2" value="Host server (Localhost)" style="text;html=1;align=center;verticalAlign=middle;resizable=0;points=[];autosize=1;strokeColor=none;fillColor=none;fontStyle=1" vertex="1" parent="1">
          <mxGeometry x="160" y="460" width="150" height="30" as="geometry" />
        </mxCell>
        <mxCell id="Z3trW8ssx32PnEz77pNF-16" style="edgeStyle=orthogonalEdgeStyle;rounded=0;orthogonalLoop=1;jettySize=auto;html=1;exitX=1;exitY=0.5;exitDx=0;exitDy=0;shape=link;" edge="1" parent="1" source="Z3trW8ssx32PnEz77pNF-3" target="Z3trW8ssx32PnEz77pNF-15">
          <mxGeometry relative="1" as="geometry" />
        </mxCell>
        <mxCell id="Z3trW8ssx32PnEz77pNF-17" value="REST API calls" style="edgeLabel;html=1;align=center;verticalAlign=middle;resizable=0;points=[];" vertex="1" connectable="0" parent="Z3trW8ssx32PnEz77pNF-16">
          <mxGeometry x="-0.0417" relative="1" as="geometry">
            <mxPoint as="offset" />
          </mxGeometry>
        </mxCell>
        <mxCell id="Z3trW8ssx32PnEz77pNF-3" value="Backend service" style="rounded=0;whiteSpace=wrap;html=1;fillColor=none;strokeColor=#ae4132;" vertex="1" parent="1">
          <mxGeometry x="240" y="530" width="120" height="40" as="geometry" />
        </mxCell>
        <mxCell id="Z3trW8ssx32PnEz77pNF-4" value="" style="rounded=0;whiteSpace=wrap;html=1;fillColor=none;dashed=1;strokeColor=#007FFF;glass=1;shadow=1;" vertex="1" parent="1">
          <mxGeometry x="200" y="660" width="210" height="140" as="geometry" />
        </mxCell>
        <mxCell id="Z3trW8ssx32PnEz77pNF-7" style="edgeStyle=orthogonalEdgeStyle;rounded=0;orthogonalLoop=1;jettySize=auto;html=1;exitX=0.5;exitY=1;exitDx=0;exitDy=0;" edge="1" parent="1" source="Z3trW8ssx32PnEz77pNF-3" target="Z3trW8ssx32PnEz77pNF-8">
          <mxGeometry relative="1" as="geometry" />
        </mxCell>
        <mxCell id="Z3trW8ssx32PnEz77pNF-11" value="host:5432" style="edgeLabel;html=1;align=center;verticalAlign=middle;resizable=0;points=[];fontStyle=1;labelBackgroundColor=default;" vertex="1" connectable="0" parent="Z3trW8ssx32PnEz77pNF-7">
          <mxGeometry x="0.0125" y="1" relative="1" as="geometry">
            <mxPoint x="-1" y="17" as="offset" />
          </mxGeometry>
        </mxCell>
        <mxCell id="Z3trW8ssx32PnEz77pNF-8" value="&lt;div&gt;service name: &lt;b&gt;postgres&lt;/b&gt;&lt;/div&gt;db name: &lt;b&gt;test&lt;/b&gt;" style="image;aspect=fixed;html=1;points=[];align=center;fontSize=12;image=img/lib/azure2/databases/Azure_Database_PostgreSQL_Server.svg;" vertex="1" parent="1">
          <mxGeometry x="286" y="711.33" width="28" height="37.34" as="geometry" />
        </mxCell>
        <mxCell id="Z3trW8ssx32PnEz77pNF-9" value="" style="image;sketch=0;aspect=fixed;html=1;points=[];align=center;fontSize=12;image=img/lib/mscae/Docker.svg;" vertex="1" parent="1">
          <mxGeometry x="180" y="640" width="50" height="41" as="geometry" />
        </mxCell>
        <mxCell id="Z3trW8ssx32PnEz77pNF-10" value="" style="shape=image;verticalLabelPosition=bottom;labelBackgroundColor=default;verticalAlign=top;aspect=fixed;imageAspect=0;image=https://docs.nestjs.com/assets/logo-small-gradient.svg;" vertex="1" parent="1">
          <mxGeometry x="220" y="509.99999999999994" width="40" height="38.64" as="geometry" />
        </mxCell>
        <mxCell id="Z3trW8ssx32PnEz77pNF-15" value="Frontend" style="rounded=0;whiteSpace=wrap;html=1;fillColor=none;strokeColor=#ae4132;" vertex="1" parent="1">
          <mxGeometry x="520" y="530" width="120" height="40" as="geometry" />
        </mxCell>
        <mxCell id="Z3trW8ssx32PnEz77pNF-14" value="" style="shape=image;verticalLabelPosition=bottom;labelBackgroundColor=default;verticalAlign=top;aspect=fixed;imageAspect=0;image=data:image/png,iVBORw0KGgoAAAANSUhEUgAAAGAAAABgCAYAAADimHc4AAAQAElEQVR4AexcCZhcRbX+63b37PtkIWSBCANJmCRkYbKRZSBBIAkkZGFRUFHM9/xUVFRwe8AT5aGCwHPlCQqI8BEWCeB7KE9FFL+HkUUWA1kme2ZJJpmZTGamu++t95/qvp3uTt+e7pmeyfA+7nfPrbpVp06dOqfOqVN1e8bC+9dxlcD7Cjiu4gfeV8D7CsiJBHw5oXIciLwnLWBLY0ft9sb2rzbsa79/e/Oh/3x1U8OnNx84MuY4yK/fXb5nFLB1b+u4hsa2a7c1tm/0Kf2GVvgWHehVto1P5OUV3OkPh3dJXQNxdrZ0nthvyQwSgSGtgN2726u3NbZ/cltj25+V5dsOpe5UCjPiZRMKBWOvpo44YVuU0fbnBiqjofnwCTGEIZgZcgpoOHiwYltT21Xbm9ufDvt1I4X6U6XUPIJKlp/jOAiHwsnF1JOyiD+PmTu1Y+8WBYoy6LpGHIN8nAuGhAJ27dKF2xrbl29van8UQatJQd2vNZZppfyp5OM70IrC/34OhT/8EXZf9mG03fwtOJvePQZVkwgLfYR5GrhTaXvvtsaDf97WeOiTW1tbyzEEruOmAArHt7Xx8OLt+9ofCAc6mpTCBgppDaDykOJSnUdQ8NJfUXb7nai8/isoWv841MZX0LRtK/Y8+yz+ueYy7Kw/D23fuBHOzp0gfSRfSikqw5oHqJ+iRzVt3nPw6S37Dl61qaWlFMfpGlQFUCjW1ub2sxsaO+6ii9lnKed32sKVUEgpABUKIe/111H6k5+i6vPXoeTe+5D39luAdhBybANUmhEdaaO9pQW7ntyATUtXYt/SFei84044h9pNvTwEx4CxDJVvWWqZWJs/HGh2lfFmc3OJ4A4WDIoCduzrOKOhsf3fG5rad1saL0LpzwJqOFJd9Ot5b7+Nkp/di6prv4Cyu36A/Jc3QoXp60XaBJFfmHjdDIFcEix2s3C0g1ZawfafP4B36xejec3lOHLf/VA9wRhOfEYBBaIMaNyfH6eMvXv3FsXjDUR+wBRAoU9qaGq7iYJ/17H0m5zl19MFjPIahH/7DhQ//DCqvvBFlH3vDuNuVHcX0UW0iRDWNoIUfv7E05B/Wg3ClJxNIPIxt03FtWx6Bw3fvwvvzpmP/Vd+FMGnnwGoQEF2LUJSeacyCpXCMpK7vxOFLVv3Hnx0857W5W++qVO6RmnTH8ipArbsOTK2gaHfNoaNFDp9hbqRgq/xYtC3dy8Kf70BFTd8FeU3fxMFv/0fqLZ2yAxPB0HbQRddUOXaS1C2ahVCRA4TvPpxy0NURvPrb2DL127E1tnz0Xr1JxOU4eLFUq2LHK3X8H1DXmVr0zu7Wx8QZWzcqAMsy8ndbwXEx+qWL7QDjMMVw0Yv7nytrSj43fMo//atqPjaN1D01FPwNTURPXGWg1MwFYTpXoK0AN/oUSg9ezaK5s2BNXo0xAIESCiju6e7G40b/46tX78J2+YsxMGPfxKhP/yRytcxiCekoCoshSsBbCgf1droKuMPWvtZ1ue7TwrIJlYXziSCyf/LSyj97u2ouO7LKH7oYfjf3ZJKvr2WhTj7xQKqL10FKttA2cqLo1aAPl09dHWNjKi2fO6L2Dm/Hu2f/xLsv7+akpa4KhpblYK+kvkNo3cfMMp4d8/+xXzPWp4ZN5AFqaGx4zL69V8zVm/kjEgbq5sI5rXXUPLDH6PyM59DyT0/Q96b9EriezkCTjMKm7M+i7wsvBL96IoKlJ93TkxApUuWQA8bBrEAJ1bat8yRjsPY+4c/YjMtIqKML8JmJEbhkmXym0xWqWpRBrT63Tu79m9/Z3fL7Zv3tExPRvN671UBsvhQ6Df1WCV7Gb08DKiLCflIdVG4gXc3o/jn96Py09ei9Pt3M4L5G5QdToWddVmI9HsIlauWA/44y/f7UHbhBVErSCGkrHuKNIgo4wVs/sgnsOec89B54zeht22LVEafrmIkpesdS0V8wXHU39/Z1fJfm3a29HomZUXppEw2b9b5RcPbfwOoG6HguXP0NexA0S8fQgXDxtJbvo18ziB0dZkZI4zlAtzZHy7IR8VFFyL5Kl2+DHZJcU6sIJm2vB8+eAi7NzyNzasvx94lF1IZN8PesVOqPECdrxT+vGVL4wgPBFOcVgGBko5b6GrONZhJDxPBPPkUyr90PcpvvAkFv30eVltbElbuXkNcfGX2Vyy7AL7i4mMIW0WFKF2yGEG6tDDhGIQcFchk6ti/n8p4FltXrsG+85ai69bvQh84EOtBcCKA8cE833/EKlJkPBWwa1dblbb0Z5LbBN54C+Xc7pdf/1UUPvEkfI2MYGTAAwiO48BYgGWhag09YDJT0feyVSthBwLGCnS0bCATEbIoY9f6x7Dt/OU4/JWvQXN/Et+nYhj75t7WcfFl8XlPBYTyLa5yKsHX5/3vy4xkvgcfN03xRDLL9x0rROX2MO4vX1IP/7BqT0K+ykoUL5yf87XAs8O4CpuC3/vc8zh8w9fjSgHFy2/b8+FxeSpAOc7o+DYqbKPowV/C7CApEDp4DAbILJPIR1xL1eUMPeOZSpGvuHQtQgzYZXc8GFaQzELzH1+Abm01xcK7AUdXmYIUD08FaKjOeHxr925YhwbOx8f3FZ8P0v0IlMydjbxxY+OrUuZ9J45CYd1ZkHXAhk6JM5CFYgn2a69zbh7tW0N7Cs5TAUrpXfGMSihptMnZP1gpjwEgvr/HtlH9ITkRiOfIO1+xZjVCFL4o4agYvPFzXaM5aRJoKrU94T3uxVMB8KkdgucK2+bmR94HEyTuD9L3F5w5GQWTJmTcdd6E05FXOwniho6HFVg8IExgNhw2skwoi754KsDfVbqD0UdsAjlUgPYRnRZA+xoU/y+zv1tm/xWZz/7ouFC+avVxWYwtyzJnU+7E1doJN40ftcflKzmlRJOLIu9jx6oupdASeeOThDWjDOYG5Q4x7hfwjx+Hklkzs+6zsG4mrJNPMiGpWELWBPrYIL+wEJqCO9pc7alXKnz0PTHnqYAImoqZjubMd6oZAjIdDAsI89Ctm0cYwz60Fozl0JerfOVKszGzY3bcFyrZtckrTfygxr5jMkxFKa0CKPQdBMo7MoIwFTAY8g85GrLrVcOHo3xxfSq+MyorOWcRv7uN5FrgYLDWgkB0n+LKzVJOPxQAJKzeDk8c6fwx0CBfvGTjVXXZJYDPx/76eNNtlq1YGl0L+kgjy2b+ESNiE1aaahz1IvKeDGktwEpqbBSgSWIAwebsl/N+XVqKyouWsjPv+8jrb6LnzTe8EVhTev75cEpKjQX096ia5Hq9/aMjB6CuBcBB3y0AyjaNXWJ21Lx65aIfCLLwBrkAV65cBosnn+lI7f/Fr9C2/ol0KFAFBTyqPj9qBTJz0qL3u9I6+eQEC7A0ErwIki4r6T3xNQSzBriFjihgABcBh4IPMe6XA7XqtSvdblOm3VsbcOTljej++ysI8Tg8JVK0sGzFRbDz84wVDLQKrJroJ3DKSSYuwM+0UT5SJWkVYBfpBO0ZBfCcJRWhXJTJ4hvkLrJ86QfhqyhPS/LA/Q8jDwoBDbQ98XhaXKu8HMXnnGOsIETBpEXuR6VSCmr8ScYCyJakutAKJ5woJJNPq4Ca6up2DX3IbeT4/LBLy4RwzsHm7A9y9vdwENVXrHa7TJmGmprR9ocXECCun9D5wosIsywlcrSwfM0qhHzWgFpBXl4+NI/Do10yUY3jx4/vZsbzTqsA00pr44Yi5gQ4JhIyNTl9hGTx5ewvXTQfAR6opSN+4JePIo/7hICy4KMV+Jk//OSv0zWBf+QIFM6eDTkfEkiL3MfKvNJicGby5rQ1lqbNGpqOXK8K0MdEQtWmE/aSs1SUa1P4svgOv+qydPzC7ujAoWefQx6FH1AwVpBHK2j/3fOw2zvStq28bA1CbBMGBZQWs2+VAZ4U6LimHFf/FUB6CUTs4cNYlNs7RPcjG6+iuhkoOO3UtMQPPPw4rCPdRvAWZz/laazA192DDvnFW5rWgQ98APlTpxorGIiNWWDEcDMpKXjOTw2tcmABFl2QjMklaldXmU7YQ85SOXaQjdewK9PPfoRCOPjk08jnjA9Q+IYHMueXd0LHM7+B09PDEu+7fM0l3Blro4T42erdIvMaa9QJiKfJz5EJkzcVJStVYXwZXfN2Eb5bJmuAvOcKJOoR4edx5hfPnOZ2kzI98PhT/Ph9CH5Oe2FceBBEyctaoNrb0Pncb6XIEwrOPBOBmlPNYpxrK7BOOinSL/2/8OZoKxcKSDzLMC5I1JwjkCPnHi6iw666PMK815NrxIFHnuDstxAARe72j8glSgnQCtqe2ADz2TRSnPJZdsnKATmkU3RxInhhTTpWyk4I46UsGTiS5KLEd1+gIEGLdrWsAdJF/yFM3y8W4B8zCuXnLkzsOOnt0HO/h72nEXnkWIQNY+zCQwRRLMBPxeiWJnS++GKk0ONZePY8WCeOpityjCV4oGVfXHNKpI0mX4QCuyjdD4cMLodjUs9HzajSFu3oTqNZEtWFBXDkdznMGx/cjzQkcT8/uFTJBxeLfsWTC+DAQ4+igDPc7/p+t9+4Nj6SMBHR40/GlR6bVTykK714mdmYhSmrYzGyLwkw/ldFRRSJNlPD4af5CROGpw/L2E2vCiAOtKUTNCnrgOlFmO8j2FxcQjwsV5VlPHS7QLrxhMN/fRnBf74LcTEBowCiuv0y696iHLGE8NZt6H4l9Y9rXdyy88+D/MZU1oFcHNLli/Bd4mZyoFf3A14ZKUBpJLohngmJnvsDEvN3axsVl66ClZ/w8yOylXg389AtjxYiMzy5z0RMcIFWEEW0rX88uSrx3R9A2dILolYg2kyszvbNX8mjEyN44RBQWiXIDB6X5VGeUKyjq7nrhmzZDQvPfQSHjIa4qDo8qRzWy6Fb19vvoGvjawjAglhMZ9hGPHRzHYmHMGmLpfT84x8Ibt6SMI7kl9KLLoJdXGjWgf5agZ9roysO008GewDBy1AB2hxHSAMBRzZjHCgdHvoCIUY9PeL7eeTsKysVkp7Qct+DDGoctIVDKaGTCkgFIoxDvViBVVKM0sWLTUQkivNkIoMK36iRMVnIRHWcxOjRi0RGCoCVuKMza0AfFwGHXyhCFFrY70P1hy/14itWPu57t2Dyq3/yhJOeeQpeMOIrX47R8cqUrV6JMN2RrAWiNC+83sqtsWNiEong5tAFwXYSFpTw8Oq+THzTJuRodNP9lH/wXARGcuse4bbvT8XQJx30QtlXVY2ShXPNzrg/ViB7ADPAqGegMnO3Blg+n3FBYloC9rDhMXOL77S3vLQNUviyAPd67NCL4HJZXbZqNYJc5MOcwxRc30ifeipbUyxsLTSC2pcwaVmc8s7IBZ02pnofSQddCpp+W/fyudDFjU/F9QiUzZ/HQ7fopiUe4TjlAyeNQ+GM6cYKxBVly4bP54Ouqow0owVwoh2ee8bYyC90I6Wez4wUxHR1ogAADN1JREFUoJRi4KISvuzYDEV7m/Hx9WQKkWMHG8M+2suhmye7A1dRvnYt+vp7UvkxljtWmf3IMASV0WSkAEFU0bBKBCngHOOG2DW17zKSnIa46w3S/RROqUXx9DOF5JCC/EkTEJh4Oo8ntAlLs2HOL18J2YASoKPgUyWumazyvDNWAAVq1gGXks29QBp5Ez3Ci4tjFl+Gn8M/Ln9q61IZWmlFFn/0Hc+5v/roET3FD27wM1qAhUbmClAqgag5FYV01zuI3xcIjB+HsoXzpN8hCYVzZsM6aayxAFmQM2XSz2jOlYK0UUgM26XMCzJXgEMFcDqL+xHIZjNmfD9d0IiPfQhQDBvhfb2z4gq8Xjs7Y9ixfAUyhT2f+nTELL27R/mK7I+q1ZgxEbqUj5i+Sjq6SdMd9/fpauPqbGXvEC27RcYCpKAXCDPuD9H3Ky7alcvPd5unTNt//yeEtjSg3PJnDMXsP1NwduxE18t/S9m3W1hyTj3AY4UwN4wZR0Qnn5TgCxxnACzAD2XiWpn9ArIGUO3kmxJI6D7xPcxdbw8P3YZ/5HIg/o+r2TL5br73QX5wUfzgrlDMI+NMoIAf5zMBPy1PzojaHnssudvEd+7Qyy9eCjmmpi9PrPN406fVUBQcd9QC/IFQgrv2aGaKLfPM4HF4/8jdPJSxXVS7sgLa5xeL8wSZ/UEy5RSXoGr1CrdpyrTztTdw5NU3eOimzEd2NvOkG1+HDC8flDklDb69Cd1vvZW2VenSpbB5TiQW4KTFBCwqFifwHIh4VAEVgZ4ZEyc28jWjO2MFzJypQlqpfSIVsQDmYVcdXf2lPBnM7OehW/WlK+HjgNJx1PST+zj7YRTAj9kcCIcTL2mvfDqicXWKeWMFVER7bx9seEpb9sHzMjqky8sviNm/jJ+H0TsVY3Z2l9FtZYQVRaLgt1Ms0TfAGVHNvJQcCw7ZCtL9hPMDMO6HmF539+at6HjxJYiL8Iuk2BYZgxfVY8t9FL5fKXT9bSNCvfytc+kqHtKRd7ECGd2x1CIlgeiPsUT4UkLcjN2P4GelAK5LhjgVwf40wsNHeMpJFl7ZeFUuvxAmTpbePKBFfD85z6OAFNOMZS+4HjRTFYtu/ewjwMCg7Ylfp0KJlfnKy3lIt8h8sAmJ9cVqEjO+isqj7Ape9Gc8iVjeb9kpQDnHbMaoCSqBkoh0bvKiIKMAlo342BXevbMm1NyCg7/5LUT4IpxU9NKWkUY2t1iAWFrnH/8Ee//R/++Qikb52tUI+RTSWYF/xDDE+CMRuiAzSZnN6M5KARpWhDgFK0IOs3OK/ugMYJfyLq6nh+6nbMk5yB8f/a0M61LdLT97AL5gGCIYmaHSPhtIRTNdmfRhXJEdRseT6a3AP+oEFM6axYiI1s4xp6KrTjzRFBueiaMdZaJFU5jBIysFODpsLEA6E9rO8GOPpTWZMNEPY/8Trkl/7CC/5dz/+AYuvgp+Ici2sdmUaV7aZQliAXlcC9qeew5Ox+G0rSsvjfye1NMKZA/g8mooqcgkNfneH1kpQNm+iHajHYa5uUoWWJiC7+Gut7huJgonn5GWg5b7H4bV0YkAsXyi1SjdZJpp39k221uxgY9rgb+rB+3PPMs37zvAc/58jiNMOxclJGPqUyLH6oZ9U+n9R9mmOumRlQI6i52djsOTaRKRDh1+GzZ/vM1395YFS1zQyHUfdYtSpjoYwv5fPYZ8S0FmZEqkASwUlyf9djz7GyDF/5+O77p89SqzGIdlgsRVKGrSHjeG84PSkDqtw8G2Js8/yo5rGstmpYC5Y8d2AaoFcrFDh7tViYTE7QhI1BPk7A8zytj80U/hlVOne8Krk2ZBcxH0a8VPzrKOaTMQoZMNoI+XDNxHK1AHD2LHikuwY+lFntD0rzczAATEAsQS3C4Li4uh+DHGfXeAPfX19Z5/lO3ixafCR/x773nHbjACimL2zJ8r0jMQpvsRX15OxWQCRUpB3A8lb9r3KY3y0ZfEzxksxxjFPM7IBHxUWPzxROGihXRMwnpk8jCE3potH1krQFnqZdMJLUAE1rFqBUITJpALoFBZKFa+rMDPQUVGQaq05KzzbNbXWwQqCsgG5Kfx0l/l5MlwPv0vHLcwLSWAo/RfIrnMn1krQDv6EdcCpGudn4/9t/wrOq66Arq4iD2b0kFM2dUg3oWlpaj+/GeA73471quMmEtj0AfcGyvMMJO1AqZNPPkldviQzH4XNE85xRKa7v0J2q/8EJzCQmQ9k0m0T20yHGh/0Qo40YatWY2C9b+Cw3Miwy69gExGkQO96VfnTZ+0I9t+slaAdNCe73zC0eopw4QUCJAZpyAfHasuRtNPf4COSy6GE5DT0oh/FEYHAqTrgYQ8jqF6yWIUPf4Iwh//CGUdGQ8zplsOO8jZdt38mWfcbgqyfPRJAfXjx3fPmDhuJTv+GJWw2wiWHTPPJ+CUlqCdLqnpx3ej84OLoRlqok/TWyimgARapsucP/wMJKpmz0Lxow/Bvu5aOBLtUNrxHWlbP2Ure+r8mbV3xJdnk++TAqQDpZSeMXH8Lwrsw7IT+ZzWziEzK8ikKzKbG7VD/3INmu++HV1z57AZww63MlcpqebylrlSUXsGSh/8OZwbvwZdIO5UmI30Ijmt9d+0Yy9aMKt2Rf3MKZsiNX179lkBbne1tbXBmZPG3xVC3ila6dvIXLerCEmF4dCY0Tjw5c+j+Tu3oGvmdBqDzh24jPQ35dwoG38yKn70H1xgbz36QyvSJbccCl2P7ezgt4qP0N3MWlA35QVW9fvutwJcDuSXYGdNOuUGKuA0DXUPlREJmWkR5N4IvKfmVOz/+vVo+vd/Q88ZE9hU5wBIoh835Y7SkSNRfdutsH50Nxye7Qg5wxl553jIvtOqFG44XFVw+vyzah9QtH7ByQXkTAEuM3WTT91VV/uBdZT4VNjOM1JuBmMyzHFQwQmno/lbN6P55m8gyFnHIg6SLSLVWeXRj6u4vAKVX/kyfL/4T9g87xFSEYFHGNFQXRq4zfGHT6Gfv+3Cmpr0fwMrBLKEnCvA7b/ujJq36qbWLFdaLVHaecVIlZUcUGQJpdS7p9Si8Xu3Yv+XPoewfFdlmcHLJiXNbO/CoiJUrbsGgUcegLPg7Bg/InyhxdRhut4JW5MWnlV7Q/20abH/l8HynN4DpgCXy7OmnPL8WZNrZvJ9Lb/ob4sJmAVGGYw2jsybg70/uAOtn7qG35krWTMwd35eHqpWX4J8xvL2iuVkhX7dVXasS/28AzVjwVm1a+vnTNweKx6gzIArQPgWnzlrSs36MqtnIpRex2E3i/ApgaN+h2Fex3mLsefHd+Eg4227vFya5gQCpF21+FwUPvYI7KsZyyt6fhF8lLrw4mjnLTh62YKzJi+pr6t9LVo14MmgKMAdRS0jptlTTr/HztencrA3U/riY2MuQBSiOUvbl12APT+hIq68PLKrdglkmfosC1Wz6lD08IOwv/BZaL8vgQJdDbvU3Mc465q3b5q6YNbk9B8HElrn5mVQFeCyfPaECR1zpp1+k1K+0yj9e8CgWupkJhrg7HS49W9beZFRhKSJ/4dHsL3B4gwvnzQJpffdA5uxPEqKY8gx+lofhNY3OJ0lNYvqptyzdq14yBjaoGWOiwLc0c2eWrN77rTT1ynHN5mzcT0FQqMQEUUwJBcuKUHrhy/D7h/egfYl50JzVkdqj31S7ig7+WSU3f19gIu7lv9eQjShQ/okT+fn6BAYJgdCzoSFs6bcVl+f/h8qYYCvLBQwcJzMmXHaP+dNn7iWApyn4fzFFRYlFus0VF2N/euuxu7vfwedc2YBREbcVcL6iltuhvrRXdCnjKdhiS41SVD82qRaKbXe9mHiwrradfPmTW2Oa37cskNCAe7o506b+NK8aZPmUwFrHY0tFF1MkJSkQQuNHoWm6z6LnXd+By3XXA1ZXCtv/SZ8D94HZ9qZRDPCFukb/OjjrxT+2QsY2Zw7c/LWaNmQSIaUAkQiFJTmVn99EY5MApx1lGiTlAtoPqgcFmmEThyF9vPOMYurPXWKKZM6osRu7TibWLZ2Yd3kuYSXYhVDKDPkFODKZubMmaH5M2rvCRcwYgIXS+10UMpudcwyKGAcUw69VzsMd7taJy+aNWV9rNEQzAxZBbiyqq+tPSzHAMoXOkVrdTcFHiYkCF1wpYxC72R6mz+YN2HR7Cn3ZPuBXOgMNgx5BbgCWTB9esvCujOuhY0p3Eb9nCYgwubkF5/viJv6TsDWH6ifNeWGs8+e0Ou/iXHpHu/0PaMAV1AL50z+54K6yVcvqKsts21nTCCsRy6aNfWERbOmXD9UIhuX10zS95wC3EFxsXbOnXvmnvei0N0xSPqeVYAw//8B3lfAcdbi+wroRQEDXf1/AAAA//+qfqv2AAAABklEQVQDALBOu963Tg2eAAAAAElFTkSuQmCC;" vertex="1" parent="1">
          <mxGeometry x="510" y="512.64" width="36" height="36" as="geometry" />
        </mxCell>
      </root>
    </mxGraphModel>
  </diagram>
</mxfile>
